<?xml version="1.0" encoding="utf-8"?>
<svg version="1.1" xmlns:xlink="http://www.w3.org/1999/xlink" width="27px" height="17px" xmlns="http://www.w3.org/2000/svg">
  <g transform="matrix(1 0 0 1 -754 -504 )">
    <path d="M 14.653564453125 11.136328125  C 15.009521484375 10.299609375  15.1875 9.42083333333333  15.1875 8.5  C 15.1875 7.57916666666667  15.009521484375 6.700390625  14.653564453125 5.863671875  C 14.297607421875 5.026953125  13.81640625 4.303125  13.2099609375 3.6921875  C 12.603515625 3.08125  11.885009765625 2.596484375  11.054443359375 2.237890625  C 10.223876953125 1.879296875  9.3515625 1.7  8.4375 1.7  C 7.5234375 1.7  6.651123046875 1.879296875  5.820556640625 2.237890625  C 4.989990234375 2.596484375  4.271484375 3.08125  3.6650390625 3.6921875  C 3.05859375 4.303125  2.577392578125 5.026953125  2.221435546875 5.863671875  C 1.865478515625 6.700390625  1.6875 7.57916666666667  1.6875 8.5  C 1.6875 9.42083333333333  1.865478515625 10.299609375  2.221435546875 11.136328125  C 2.577392578125 11.973046875  3.05859375 12.696875  3.6650390625 13.3078125  C 4.271484375 13.91875  4.989990234375 14.403515625  5.820556640625 14.762109375  C 6.651123046875 15.120703125  7.5234375 15.3  8.4375 15.3  C 9.3515625 15.3  10.223876953125 15.120703125  11.054443359375 14.762109375  C 11.885009765625 14.403515625  12.603515625 13.91875  13.2099609375 13.3078125  C 13.81640625 12.696875  14.297607421875 11.973046875  14.653564453125 11.136328125  Z M 24.778564453125 11.136328125  C 25.134521484375 10.299609375  25.3125 9.42083333333333  25.3125 8.5  C 25.3125 7.57916666666667  25.134521484375 6.700390625  24.778564453125 5.863671875  C 24.422607421875 5.026953125  23.94140625 4.303125  23.3349609375 3.6921875  C 22.728515625 3.08125  22.010009765625 2.596484375  21.179443359375 2.237890625  C 20.348876953125 1.879296875  19.4765625 1.7  18.5625 1.7  L 13.4736328125 1.7  C 14.51953125 2.496875  15.347900390625 3.48854166666666  15.958740234375 4.675  C 16.569580078125 5.86145833333333  16.875 7.13645833333333  16.875 8.5  C 16.875 9.86354166666667  16.569580078125 11.1385416666667  15.958740234375 12.325  C 15.347900390625 13.5114583333333  14.51953125 14.503125  13.4736328125 15.3  L 18.5625 15.3  C 19.4765625 15.3  20.348876953125 15.120703125  21.179443359375 14.762109375  C 22.010009765625 14.403515625  22.728515625 13.91875  23.3349609375 13.3078125  C 23.94140625 12.696875  24.422607421875 11.973046875  24.778564453125 11.136328125  Z M 26.32763671875 5.199609375  C 26.77587890625 6.248828125  27 7.34895833333333  27 8.5  C 27 9.65104166666667  26.77587890625 10.751171875  26.32763671875 11.800390625  C 25.87939453125 12.849609375  25.279541015625 13.752734375  24.528076171875 14.509765625  C 23.776611328125 15.266796875  22.880126953125 15.87109375  21.838623046875 16.32265625  C 20.797119140625 16.77421875  19.705078125 17  18.5625 17  L 8.4375 17  C 7.294921875 17  6.202880859375 16.77421875  5.161376953125 16.32265625  C 4.119873046875 15.87109375  3.223388671875 15.266796875  2.471923828125 14.509765625  C 1.720458984375 13.752734375  1.12060546875 12.849609375  0.67236328125 11.800390625  C 0.22412109375 10.751171875  0 9.65104166666667  0 8.5  C 0 7.34895833333333  0.22412109375 6.248828125  0.67236328125 5.199609375  C 1.12060546875 4.150390625  1.720458984375 3.247265625  2.471923828125 2.490234375  C 3.223388671875 1.733203125  4.119873046875 1.12890625  5.161376953125 0.677343749999999  C 6.202880859375 0.22578125  7.294921875 0  8.4375 0  L 18.5625 0  C 19.705078125 0  20.797119140625 0.22578125  21.838623046875 0.677343749999999  C 22.880126953125 1.12890625  23.776611328125 1.733203125  24.528076171875 2.490234375  C 25.279541015625 3.247265625  25.87939453125 4.150390625  26.32763671875 5.199609375  Z " fill-rule="nonzero" fill="#000000" stroke="none" transform="matrix(1 0 0 1 754 504 )" />
  </g>
</svg>