<?xml version="1.0" encoding="utf-8"?>
<svg version="1.1" xmlns:xlink="http://www.w3.org/1999/xlink" width="27px" height="17px" xmlns="http://www.w3.org/2000/svg">
  <g transform="matrix(1 0 0 1 -754 -470 )">
    <path d="M 0.67236328125 11.800390625  C 0.22412109375 10.751171875  0 9.65104166666667  0 8.5  C 0 7.34895833333333  0.22412109375 6.248828125  0.67236328125 5.199609375  C 1.12060546875 4.150390625  1.720458984375 3.247265625  2.471923828125 2.490234375  C 3.223388671875 1.733203125  4.119873046875 1.12890625  5.161376953125 0.677343749999999  C 6.202880859375 0.22578125  7.294921875 0  8.4375 0  L 18.5625 0  C 19.705078125 0  20.797119140625 0.22578125  21.838623046875 0.677343749999999  C 22.880126953125 1.12890625  23.776611328125 1.733203125  24.528076171875 2.490234375  C 25.279541015625 3.247265625  25.87939453125 4.150390625  26.32763671875 5.199609375  C 26.77587890625 6.248828125  27 7.34895833333333  27 8.5  C 27 9.65104166666667  26.77587890625 10.751171875  26.32763671875 11.800390625  C 25.87939453125 12.849609375  25.279541015625 13.752734375  24.528076171875 14.509765625  C 23.776611328125 15.266796875  22.880126953125 15.87109375  21.838623046875 16.32265625  C 20.797119140625 16.77421875  19.705078125 17  18.5625 17  L 8.4375 17  C 7.294921875 17  6.202880859375 16.77421875  5.161376953125 16.32265625  C 4.119873046875 15.87109375  3.223388671875 15.266796875  2.471923828125 14.509765625  C 1.720458984375 13.752734375  1.12060546875 12.849609375  0.67236328125 11.800390625  Z M 15.945556640625 14.762109375  C 16.776123046875 15.120703125  17.6484375 15.3  18.5625 15.3  C 19.4765625 15.3  20.348876953125 15.120703125  21.179443359375 14.762109375  C 22.010009765625 14.403515625  22.728515625 13.91875  23.3349609375 13.3078125  C 23.94140625 12.696875  24.422607421875 11.973046875  24.778564453125 11.136328125  C 25.134521484375 10.299609375  25.3125 9.42083333333333  25.3125 8.5  C 25.3125 7.57916666666667  25.134521484375 6.700390625  24.778564453125 5.863671875  C 24.422607421875 5.026953125  23.94140625 4.303125  23.3349609375 3.6921875  C 22.728515625 3.08125  22.010009765625 2.596484375  21.179443359375 2.237890625  C 20.348876953125 1.879296875  19.4765625 1.7  18.5625 1.7  C 17.6484375 1.7  16.776123046875 1.879296875  15.945556640625 2.237890625  C 15.114990234375 2.596484375  14.396484375 3.08125  13.7900390625 3.6921875  C 13.18359375 4.303125  12.702392578125 5.026953125  12.346435546875 5.863671875  C 11.990478515625 6.700390625  11.8125 7.57916666666667  11.8125 8.5  C 11.8125 9.42083333333333  11.990478515625 10.299609375  12.346435546875 11.136328125  C 12.702392578125 11.973046875  13.18359375 12.696875  13.7900390625 13.3078125  C 14.396484375 13.91875  15.114990234375 14.403515625  15.945556640625 14.762109375  Z " fill-rule="nonzero" fill="#000000" stroke="none" transform="matrix(1 0 0 1 754 470 )" />
  </g>
</svg>