<?xml version="1.0" encoding="utf-8"?>
<svg version="1.1" xmlns:xlink="http://www.w3.org/1999/xlink" width="270px" height="6px" preserveAspectRatio="xMinYMid meet" viewBox="232 525  270 4" xmlns="http://www.w3.org/2000/svg">
  <path d="M 237 523.5  A 3 3 0 0 0 234 526.5 A 3 3 0 0 0 237 529.5 A 3 3 0 0 0 240 526.5 A 3 3 0 0 0 237 523.5 Z M 492.946446609407 521.853553390593  L 497.592893218814 526.5  L 492.946446609407 531.146446609407  L 493.653553390593 531.853553390593  L 498.653553390593 526.853553390593  L 499.007106781187 526.5  L 498.653553390593 526.146446609407  L 493.653553390593 521.146446609407  L 492.946446609407 521.853553390593  Z " fill-rule="nonzero" fill="#02a7f0" stroke="none" transform="matrix(0.999999774823424 -0.000671083527969197 0.000671083527969197 0.999999774823424 -0.353242950260608 0.246070668468064 )" />
  <path d="M 235 526.5  L 498 526.5  " stroke-width="1" stroke="#02a7f0" fill="none" transform="matrix(0.999999774823424 -0.000671083527969197 0.000671083527969197 0.999999774823424 -0.353242950260608 0.246070668468064 )" />
</svg>