<?xml version="1.0" encoding="utf-8"?>
<svg version="1.1" xmlns:xlink="http://www.w3.org/1999/xlink" width="178px" height="19px" xmlns="http://www.w3.org/2000/svg">
  <g transform="matrix(1 0 0 1 -781 -114 )">
    <path d="M 793 120.5  A 3 3 0 0 0 790 123.5 A 3 3 0 0 0 793 126.5 A 3 3 0 0 0 796 123.5 A 3 3 0 0 0 793 120.5 Z M 943.946446609407 118.853553390593  L 948.592893218814 123.5  L 943.946446609407 128.146446609407  L 944.653553390593 128.853553390593  L 949.653553390593 123.853553390593  L 950.007106781187 123.5  L 949.653553390593 123.146446609407  L 944.653553390593 118.146446609407  L 943.946446609407 118.853553390593  Z " fill-rule="nonzero" fill="#02a7f0" stroke="none" />
    <path d="M 791 123.5  L 949 123.5  " stroke-width="1" stroke="#02a7f0" fill="none" />
  </g>
</svg>