<?xml version="1.0" encoding="utf-8"?>
<svg version="1.1" xmlns:xlink="http://www.w3.org/1999/xlink" width="33px" height="21px" xmlns="http://www.w3.org/2000/svg">
  <g transform="matrix(1 0 0 1 -295 -180 )">
    <path d="M 0.82177734375 14.576953125  C 0.27392578125 13.280859375  0 11.921875  0 10.5  C 0 9.078125  0.27392578125 7.719140625  0.82177734375 6.423046875  C 1.36962890625 5.126953125  2.102783203125 4.011328125  3.021240234375 3.076171875  C 3.939697265625 2.141015625  5.035400390625 1.39453125  6.308349609375 0.836718749999999  C 7.581298828125 0.27890625  8.916015625 0  10.3125 0  L 22.6875 0  C 24.083984375 0  25.418701171875 0.27890625  26.691650390625 0.836718749999999  C 27.964599609375 1.39453125  29.060302734375 2.141015625  29.978759765625 3.076171875  C 30.897216796875 4.011328125  31.63037109375 5.126953125  32.17822265625 6.423046875  C 32.72607421875 7.719140625  33 9.078125  33 10.5  C 33 11.921875  32.72607421875 13.280859375  32.17822265625 14.576953125  C 31.63037109375 15.873046875  30.897216796875 16.988671875  29.978759765625 17.923828125  C 29.060302734375 18.858984375  27.964599609375 19.60546875  26.691650390625 20.16328125  C 25.418701171875 20.72109375  24.083984375 21  22.6875 21  L 10.3125 21  C 8.916015625 21  7.581298828125 20.72109375  6.308349609375 20.16328125  C 5.035400390625 19.60546875  3.939697265625 18.858984375  3.021240234375 17.923828125  C 2.102783203125 16.988671875  1.36962890625 15.873046875  0.82177734375 14.576953125  Z M 19.489013671875 18.235546875  C 20.504150390625 18.678515625  21.5703125 18.9  22.6875 18.9  C 23.8046875 18.9  24.870849609375 18.678515625  25.885986328125 18.235546875  C 26.901123046875 17.792578125  27.779296875 17.19375  28.5205078125 16.4390625  C 29.26171875 15.684375  29.849853515625 14.790234375  30.284912109375 13.756640625  C 30.719970703125 12.723046875  30.9375 11.6375  30.9375 10.5  C 30.9375 9.3625  30.719970703125 8.276953125  30.284912109375 7.243359375  C 29.849853515625 6.209765625  29.26171875 5.315625  28.5205078125 4.5609375  C 27.779296875 3.80625  26.901123046875 3.207421875  25.885986328125 2.764453125  C 24.870849609375 2.321484375  23.8046875 2.1  22.6875 2.1  C 21.5703125 2.1  20.504150390625 2.321484375  19.489013671875 2.764453125  C 18.473876953125 3.207421875  17.595703125 3.80625  16.8544921875 4.5609375  C 16.11328125 5.315625  15.525146484375 6.209765625  15.090087890625 7.243359375  C 14.655029296875 8.276953125  14.4375 9.3625  14.4375 10.5  C 14.4375 11.6375  14.655029296875 12.723046875  15.090087890625 13.756640625  C 15.525146484375 14.790234375  16.11328125 15.684375  16.8544921875 16.4390625  C 17.595703125 17.19375  18.473876953125 17.792578125  19.489013671875 18.235546875  Z " fill-rule="nonzero" fill="#000000" stroke="none" transform="matrix(1 0 0 1 295 180 )" />
  </g>
</svg>