<?xml version="1.0" encoding="utf-8"?>
<svg version="1.1" xmlns:xlink="http://www.w3.org/1999/xlink" width="47px" height="47px" xmlns="http://www.w3.org/2000/svg">
  <g transform="matrix(1 0 0 1 -178 -502 )">
    <path d="M 36.626953125 26.8352864583333  C 37.0145399305556 26.4476996527778  37.2083333333333 25.9887152777778  37.2083333333333 25.4583333333333  L 37.2083333333333 21.5416666666667  C 37.2083333333333 21.0112847222222  37.0145399305556 20.5523003472222  36.626953125 20.1647135416667  C 36.2393663194445 19.7771267361111  35.7803819444445 19.5833333333333  35.25 19.5833333333333  L 27.4166666666667 19.5833333333333  L 27.4166666666667 11.75  C 27.4166666666667 11.2196180555556  27.2228732638889 10.7606336805556  26.8352864583333 10.373046875  C 26.4476996527778 9.98546006944444  25.9887152777778 9.79166666666667  25.4583333333333 9.79166666666667  L 21.5416666666667 9.79166666666667  C 21.0112847222222 9.79166666666667  20.5523003472222 9.98546006944444  20.1647135416667 10.373046875  C 19.7771267361111 10.7606336805556  19.5833333333333 11.2196180555556  19.5833333333333 11.75  L 19.5833333333333 19.5833333333333  L 11.75 19.5833333333333  C 11.2196180555556 19.5833333333333  10.7606336805556 19.7771267361111  10.373046875 20.1647135416667  C 9.98546006944444 20.5523003472222  9.79166666666667 21.0112847222222  9.79166666666667 21.5416666666667  L 9.79166666666667 25.4583333333333  C 9.79166666666667 25.9887152777778  9.98546006944444 26.4476996527778  10.373046875 26.8352864583333  C 10.7606336805556 27.2228732638889  11.2196180555556 27.4166666666667  11.75 27.4166666666667  L 19.5833333333333 27.4166666666667  L 19.5833333333333 35.25  C 19.5833333333333 35.7803819444444  19.7771267361111 36.2393663194444  20.1647135416667 36.626953125  C 20.5523003472222 37.0145399305556  21.0112847222222 37.2083333333333  21.5416666666667 37.2083333333333  L 25.4583333333333 37.2083333333333  C 25.9887152777778 37.2083333333333  26.4476996527778 37.0145399305556  26.8352864583333 36.626953125  C 27.2228732638889 36.2393663194444  27.4166666666667 35.7803819444444  27.4166666666667 35.25  L 27.4166666666667 27.4166666666667  L 35.25 27.4166666666667  C 35.7803819444445 27.4166666666667  36.2393663194445 27.2228732638889  36.626953125 26.8352864583333  Z M 43.8483072916667 11.7041015625  C 45.9494357638889 15.3045789930556  47 19.2365451388889  47 23.5  C 47 27.7634548611111  45.9494357638889 31.6954210069444  43.8483072916667 35.2958984375  C 41.7471788194445 38.8963758680556  38.8963758680556 41.7471788194444  35.2958984375 43.8483072916667  C 31.6954210069445 45.9494357638889  27.7634548611111 47  23.5 47  C 19.2365451388889 47  15.3045789930556 45.9494357638889  11.7041015625 43.8483072916667  C 8.10362413194444 41.7471788194444  5.25282118055556 38.8963758680556  3.15169270833333 35.2958984375  C 1.05056423611111 31.6954210069444  0 27.7634548611111  0 23.5  C 0 19.2365451388889  1.05056423611111 15.3045789930556  3.15169270833333 11.7041015625  C 5.25282118055556 8.10362413194444  8.10362413194444 5.25282118055555  11.7041015625 3.15169270833333  C 15.3045789930556 1.05056423611111  19.2365451388889 0  23.5 0  C 27.7634548611111 0  31.6954210069445 1.05056423611111  35.2958984375 3.15169270833333  C 38.8963758680556 5.25282118055555  41.7471788194445 8.10362413194444  43.8483072916667 11.7041015625  Z " fill-rule="nonzero" fill="#000000" stroke="none" transform="matrix(1 0 0 1 178 502 )" />
  </g>
</svg>