<?xml version="1.0" encoding="utf-8"?>
<svg version="1.1" xmlns:xlink="http://www.w3.org/1999/xlink" width="22px" height="20px" preserveAspectRatio="xMinYMid meet" viewBox="332 399  22 18" xmlns="http://www.w3.org/2000/svg">
  <path d="M 343 404.5  A 3 3 0 0 0 340 407.5 A 3 3 0 0 0 343 410.5 A 3 3 0 0 0 346 407.5 A 3 3 0 0 0 343 404.5 Z M 493.946446609407 402.853553390593  L 498.592893218813 407.5  L 493.946446609407 412.146446609407  L 494.653553390593 412.853553390593  L 499.653553390593 407.853553390593  L 500.007106781187 407.5  L 499.653553390593 407.146446609407  L 494.653553390593 402.146446609407  L 493.946446609407 402.853553390593  Z " fill-rule="nonzero" fill="#02a7f0" stroke="none" transform="matrix(0.999999620978409 -0.000870656671031253 0.000870656671031253 0.999999620978409 -0.354633404376898 0.365830253131548 )" />
  <path d="M 341 407.5  L 499 407.5  " stroke-width="1" stroke="#02a7f0" fill="none" transform="matrix(0.999999620978409 -0.000870656671031253 0.000870656671031253 0.999999620978409 -0.354633404376898 0.365830253131548 )" />
</svg>