<?xml version="1.0" encoding="utf-8"?>
<svg version="1.1" xmlns:xlink="http://www.w3.org/1999/xlink" width="22px" height="22px" preserveAspectRatio="xMinYMid meet" viewBox="940 169  22 20" xmlns="http://www.w3.org/2000/svg">
  <g transform="matrix(-1 0 0 -1 1902 358 )">
    <path d="M 795 176.5  A 3 3 0 0 0 792 179.5 A 3 3 0 0 0 795 182.5 A 3 3 0 0 0 798 179.5 A 3 3 0 0 0 795 176.5 Z M 945.946446609407 174.853553390593  L 950.592893218814 179.5  L 945.946446609407 184.146446609407  L 946.653553390593 184.853553390593  L 951.653553390593 179.853553390593  L 952.007106781187 179.5  L 951.653553390593 179.146446609407  L 946.653553390593 174.146446609407  L 945.946446609407 174.853553390593  Z " fill-rule="nonzero" fill="#02a7f0" stroke="none" transform="matrix(0.999999620978409 -0.000870656671031253 0.000870656671031253 0.999999620978409 -0.155952365622511 0.759280651514871 )" />
    <path d="M 793 179.5  L 951 179.5  " stroke-width="1" stroke="#02a7f0" fill="none" transform="matrix(0.999999620978409 -0.000870656671031253 0.000870656671031253 0.999999620978409 -0.155952365622511 0.759280651514871 )" />
  </g>
</svg>