<?xml version="1.0" encoding="utf-8"?>
<svg version="1.1" xmlns:xlink="http://www.w3.org/1999/xlink" width="25px" height="28px" xmlns="http://www.w3.org/2000/svg">
  <g transform="matrix(1 0 0 1 -190 -452 )">
    <path d="M 0.520833333333333 25  L 24.4791666666667 25  C 24.6310763888889 25  24.755859375 25.046875  24.853515625 25.140625  C 24.951171875 25.234375  25 25.3541666666667  25 25.5  L 25 27.5  C 25 27.6458333333333  24.951171875 27.765625  24.853515625 27.859375  C 24.755859375 27.953125  24.6310763888889 28  24.4791666666667 28  L 0.520833333333333 28  C 0.368923611111111 28  0.244140625 27.953125  0.146484375 27.859375  C 0.048828125 27.765625  0 27.6458333333333  0 27.5  L 0 25.5  C 0 25.3541666666667  0.048828125 25.234375  0.146484375 25.140625  C 0.244140625 25.046875  0.368923611111111 25  0.520833333333333 25  Z M 22.8841145833333 24  L 2.11588541666667 24  C 2.1484375 23.4270833333333  2.23524305555556 22.8697916666667  2.37630208333333 22.328125  C 2.51736111111111 21.7864583333333  2.68012152777778 21.2916666666667  2.86458333333333 20.84375  C 3.04904513888889 20.3958333333333  3.29861111111111 19.9427083333333  3.61328125 19.484375  C 3.92795138888889 19.0260416666667  4.21820746527778 18.6302083333333  4.48404947916667 18.296875  C 4.74989149305556 17.9635416666667  5.09982638888889 17.6015625  5.53385416666667 17.2109375  C 5.96788194444444 16.8203125  6.32595486111111 16.5078125  6.60807291666667 16.2734375  C 6.89019097222222 16.0390625  7.27267795138889 15.7526041666667  7.75553385416667 15.4140625  C 8.23838975694444 15.0755208333333  8.59917534722222 14.828125  8.837890625 14.671875  C 9.07660590277778 14.515625  9.42925347222222 14.2916666666667  9.89583333333333 14  C 9.42925347222222 13.7083333333333  9.07660590277778 13.484375  8.837890625 13.328125  C 8.59917534722222 13.171875  8.23838975694444 12.9244791666667  7.75553385416667 12.5859375  C 7.27267795138889 12.2473958333333  6.89019097222222 11.9609375  6.60807291666667 11.7265625  C 6.32595486111111 11.4921875  5.96788194444444 11.1796875  5.53385416666667 10.7890625  C 5.09982638888889 10.3984375  4.74989149305556 10.0364583333333  4.48404947916667 9.703125  C 4.21820746527778 9.36979166666667  3.92795138888889 8.97395833333333  3.61328125 8.515625  C 3.29861111111111 8.05729166666667  3.04904513888889 7.60416666666666  2.86458333333333 7.15625  C 2.68012152777778 6.70833333333333  2.51736111111111 6.21354166666667  2.37630208333333 5.671875  C 2.23524305555556 5.13020833333333  2.1484375 4.57291666666667  2.11588541666667 4  L 22.8841145833333 4  C 22.8515625 4.57291666666667  22.7647569444444 5.13020833333333  22.6236979166667 5.671875  C 22.4826388888889 6.21354166666667  22.3198784722222 6.70833333333333  22.1354166666667 7.15625  C 21.9509548611111 7.60416666666666  21.7013888888889 8.05729166666667  21.38671875 8.515625  C 21.0720486111111 8.97395833333333  20.7817925347222 9.36979166666667  20.5159505208333 9.703125  C 20.2501085069444 10.0364583333333  19.9001736111111 10.3984375  19.4661458333333 10.7890625  C 19.0321180555556 11.1796875  18.6740451388889 11.4921875  18.3919270833333 11.7265625  C 18.1098090277778 11.9609375  17.7273220486111 12.2473958333333  17.2444661458333 12.5859375  C 16.7616102430556 12.9244791666667  16.4008246527778 13.171875  16.162109375 13.328125  C 15.9233940972222 13.484375  15.5707465277778 13.7083333333333  15.1041666666667 14  C 15.5707465277778 14.2916666666667  15.9233940972222 14.515625  16.162109375 14.671875  C 16.4008246527778 14.828125  16.7616102430556 15.0755208333333  17.2444661458333 15.4140625  C 17.7273220486111 15.7526041666667  18.1098090277778 16.0390625  18.3919270833333 16.2734375  C 18.6740451388889 16.5078125  19.0321180555556 16.8203125  19.4661458333333 17.2109375  C 19.9001736111111 17.6015625  20.2501085069444 17.9635416666667  20.5159505208333 18.296875  C 20.7817925347222 18.6302083333333  21.0720486111111 19.0260416666667  21.38671875 19.484375  C 21.7013888888889 19.9427083333333  21.9509548611111 20.3958333333333  22.1354166666667 20.84375  C 22.3198784722222 21.2916666666667  22.4826388888889 21.7864583333333  22.6236979166667 22.328125  C 22.7647569444444 22.8697916666667  22.8515625 23.4270833333333  22.8841145833333 24  Z M 0.520833333333333 0  L 24.4791666666667 0  C 24.6310763888889 0  24.755859375 0.0468749999999987  24.853515625 0.140624999999999  C 24.951171875 0.234375  25 0.354166666666664  25 0.500000000000001  L 25 2.5  C 25 2.64583333333333  24.951171875 2.765625  24.853515625 2.859375  C 24.755859375 2.953125  24.6310763888889 3  24.4791666666667 3  L 0.520833333333333 3  C 0.368923611111111 3  0.244140625 2.953125  0.146484375 2.859375  C 0.048828125 2.765625  0 2.64583333333333  0 2.5  L 0 0.500000000000001  C 0 0.354166666666664  0.048828125 0.234375  0.146484375 0.140624999999999  C 0.244140625 0.0468749999999987  0.368923611111111 0  0.520833333333333 0  Z " fill-rule="nonzero" fill="#000000" stroke="none" transform="matrix(1 0 0 1 190 452 )" />
  </g>
</svg>