<?xml version="1.0" encoding="utf-8"?>
<svg version="1.1" xmlns:xlink="http://www.w3.org/1999/xlink" width="35px" height="34px" xmlns="http://www.w3.org/2000/svg">
  <g transform="matrix(1 0 0 1 -572 -263 )">
    <path d="M 17.5 16.00125  C 17.9346955128205 16.00125  18.3834134615385 16.0791666666667  18.8461538461538 16.235  L 18.8461538461538 28.56  C 18.8461538461538 30.0333333333333  18.3133012820513 31.3083333333333  17.2475961538462 32.385  C 16.181891025641 33.4616666666667  14.9198717948718 34  13.4615384615385 34  C 12.0032051282051 34  10.7411858974359 33.4616666666667  9.67548076923077 32.385  C 8.60977564102564 31.3083333333333  8.07692307692308 30.0333333333333  8.07692307692308 28.56  C 8.07692307692308 28.1916666666667  8.21013621794872 27.8729166666667  8.4765625 27.60375  C 8.74298878205128 27.3345833333333  9.05849358974359 27.2  9.42307692307692 27.2  C 9.78766025641026 27.2  10.1031650641026 27.3345833333333  10.3695913461538 27.60375  C 10.6360176282051 27.8729166666667  10.7692307692308 28.1916666666667  10.7692307692308 28.56  C 10.7692307692308 29.2683333333333  11.0426682692308 29.89875  11.5895432692308 30.45125  C 12.1364182692308 31.00375  12.7604166666667 31.28  13.4615384615385 31.28  C 14.1626602564103 31.28  14.7866586538462 31.00375  15.3335336538462 30.45125  C 15.8804086538462 29.89875  16.1538461538462 29.2683333333333  16.1538461538462 28.56  L 16.1538461538462 16.235  C 16.6165865384615 16.0791666666667  17.0653044871795 16.00125  17.5 16.00125  Z M 34.9789663461538 16.66  C 34.9929887820513 16.6883333333333  35 16.7379166666667  35 16.80875  C 35 16.9929166666667  34.9333934294872 17.1522916666667  34.8001802884615 17.286875  C 34.6669671474359 17.4214583333333  34.5092147435897 17.48875  34.3269230769231 17.48875  C 34.1726762820513 17.48875  34.0114182692308 17.4179166666667  33.8431490384615 17.27625  C 33.1560496794872 16.6245833333333  32.5040064102564 16.1358333333333  31.8870192307692 15.81  C 31.2700320512821 15.4841666666667  30.5548878205128 15.32125  29.7415865384615 15.32125  C 28.7880608974359 15.32125  27.890625 15.5833333333333  27.0492788461538 16.1075  C 26.2079326923077 16.6316666666667  25.4857772435897 17.31875  24.8828125 18.16875  C 24.784655448718 18.3104166666667  24.6619591346154 18.50875  24.5147235576923 18.76375  C 24.3674879807692 19.01875  24.2658253205128 19.18875  24.2097355769231 19.27375  C 24.0554887820513 19.5145833333333  23.8591746794872 19.635  23.6207932692308 19.635  C 23.3683894230769 19.635  23.1650641025641 19.5145833333333  23.0108173076923 19.27375  C 22.9547275641026 19.18875  22.8530649038462 19.01875  22.7058293269231 18.76375  C 22.55859375 18.50875  22.4358974358974 18.3104166666667  22.3377403846154 18.16875  C 21.7347756410256 17.31875  21.0161258012821 16.6316666666667  20.1817908653846 16.1075  C 19.3474559294872 15.5833333333333  18.4535256410256 15.32125  17.5 15.32125  C 16.5464743589744 15.32125  15.6525440705128 15.5833333333333  14.8182091346154 16.1075  C 13.9838741987179 16.6316666666667  13.2652243589744 17.31875  12.6622596153846 18.16875  C 12.5641025641026 18.3104166666667  12.44140625 18.50875  12.2941706730769 18.76375  C 12.1469350961538 19.01875  12.0452724358974 19.18875  11.9891826923077 19.27375  C 11.8349358974359 19.5145833333333  11.6316105769231 19.635  11.3792067307692 19.635  C 11.1408253205128 19.635  10.9445112179487 19.5145833333333  10.7902644230769 19.27375  C 10.7341746794872 19.18875  10.6325120192308 19.01875  10.4852764423077 18.76375  C 10.3380408653846 18.50875  10.2153445512821 18.3104166666667  10.1171875 18.16875  C 9.51422275641026 17.31875  8.79206730769231 16.6316666666667  7.95072115384615 16.1075  C 7.109375 15.5833333333333  6.2119391025641 15.32125  5.25841346153846 15.32125  C 4.44511217948718 15.32125  3.72996794871795 15.4841666666667  3.11298076923077 15.81  C 2.49599358974359 16.1358333333333  1.84395032051282 16.6245833333333  1.15685096153846 17.27625  C 0.988581730769231 17.4179166666667  0.827323717948718 17.48875  0.673076923076923 17.48875  C 0.490785256410257 17.48875  0.333032852564103 17.4214583333333  0.199819711538462 17.286875  C 0.0666065705128205 17.1522916666667  0 16.9929166666667  0 16.80875  C 0 16.7379166666667  0.00701121794871795 16.6883333333333  0.0210336538461538 16.66  C 0.652043269230769 14.0675  1.86147836538462 11.804375  3.64933894230769 9.870625  C 5.43719951923077 7.936875  7.52654246794872 6.48833333333333  9.91736778846154 5.525  C 12.3081931089744 4.56166666666666  14.8357371794872 4.08  17.5 4.08  C 19.463141025641 4.08  21.3877203525641 4.36333333333333  23.2737379807692 4.93  C 25.1597556089744 5.49666666666667  26.8880208333333 6.300625  28.4585336538462 7.341875  C 30.029046474359 8.383125  31.3927283653846 9.70770833333333  32.5495793269231 11.315625  C 33.7064302884615 12.9235416666667  34.5162259615385 14.705  34.9789663461538 16.66  Z M 18.4465144230769 0.403749999999999  C 18.7129407051282 0.672916666666662  18.8461538461538 0.991666666666663  18.8461538461538 1.36  L 18.8461538461538 3.4425  C 18.2572115384615 3.41416666666666  17.8084935897436 3.4  17.5 3.4  C 17.1915064102564 3.4  16.7427884615385 3.41416666666666  16.1538461538462 3.4425  L 16.1538461538462 1.36  C 16.1538461538462 0.991666666666663  16.2870592948718 0.672916666666662  16.5534855769231 0.403749999999999  C 16.8199118589744 0.134583333333332  17.1354166666667 0  17.5 0  C 17.8645833333333 0  18.1800881410256 0.134583333333332  18.4465144230769 0.403749999999999  Z " fill-rule="nonzero" fill="#000000" stroke="none" transform="matrix(1 0 0 1 572 263 )" />
  </g>
</svg>