<?xml version="1.0" encoding="utf-8"?>
<svg version="1.1" xmlns:xlink="http://www.w3.org/1999/xlink" width="8px" height="15px" xmlns="http://www.w3.org/2000/svg">
  <g transform="matrix(1 0 0 1 -599 -251 )">
    <path d="M 7.5902004454343 3.81310096153846  C 7.70304380103935 3.81310096153846  7.80400890868597 3.85817307692308  7.89309576837416 3.94831730769231  C 8 4.06850961538462  8.02078693392725 4.20072115384615  7.9554565701559 4.34495192307692  L 3.14476614699332 14.7746394230769  C 3.06755753526355 14.9248798076923  2.94283593170007 15  2.7706013363029 15  C 2.74684484038604 15  2.70527097253155 14.9939903846154  2.64587973273942 14.9819711538462  C 2.5449146250928 14.9519230769231  2.46919079435783 14.8948317307692  2.41870824053452 14.8106971153846  C 2.36822568671121 14.7265625  2.35486265775798 14.6364182692308  2.37861915367483 14.5402644230769  L 4.13363028953229 7.25661057692308  L 0.516703786191537 8.16706730769231  C 0.492947290274684 8.17307692307692  0.457312546399406 8.17608173076923  0.409799554565702 8.17608173076923  C 0.302895322939866 8.17608173076923  0.210838901262064 8.14302884615384  0.133630289532294 8.07692307692308  C 0.0267260579064588 7.98677884615385  -0.0118782479584261 7.86959134615385  0.0178173719376392 7.72536057692308  L 1.80846325167038 0.288461538461539  C 1.83221974758723 0.204326923076922  1.87973273942094 0.135216346153847  1.95100222717149 0.0811298076923078  C 2.02227171492205 0.0270432692307687  2.10541945063103 0  2.20044543429844 0  L 5.12249443207127 0  C 5.23533778767632 0  5.33036377134373 0.0375600961538441  5.4075723830735 0.112680288461539  C 5.48478099480327 0.187800480769231  5.52338530066815 0.276442307692307  5.52338530066815 0.378605769230769  C 5.52338530066815 0.426682692307692  5.50853749072012 0.480769230769231  5.47884187082405 0.540865384615384  L 3.9554565701559 4.71454326923077  L 7.48329621380846 3.83112980769231  C 7.53080920564217 3.81911057692308  7.56644394951745 3.81310096153846  7.5902004454343 3.81310096153846  Z " fill-rule="nonzero" fill="#000000" stroke="none" transform="matrix(1 0 0 1 599 251 )" />
  </g>
</svg>