<?xml version="1.0" encoding="utf-8"?>
<svg version="1.1" xmlns:xlink="http://www.w3.org/1999/xlink" width="36px" height="27px" xmlns="http://www.w3.org/2000/svg">
  <g transform="matrix(1 0 0 1 -515 -267 )">
    <path d="M 34.425 15.0436789772727  C 35.475 16.3796164772727  36 17.9105113636364  36 19.6363636363636  C 36 21.6690340909091  35.296875 23.4044744318182  33.890625 24.8426846590909  C 32.484375 26.2808948863636  30.7875 27  28.8 27  L 8.4 27  C 6.0875 27  4.109375 26.1594460227273  2.465625 24.4783380681818  C 0.821875 22.7972301136364  0 20.7741477272727  0 18.4090909090909  C 0 16.7215909090909  0.44375 15.1779119318182  1.33125 13.7780539772727  C 2.21875 12.3781960227273  3.3875 11.3330965909091  4.8375 10.6427556818182  C 4.8125 10.2848011363636  4.8 10.0099431818182  4.8 9.81818181818182  C 4.8 7.10795454545454  5.7375 4.79403409090909  7.6125 2.87642045454546  C 9.4875 0.958806818181818  11.75 0  14.4 0  C 16.375 0  18.165625 0.562499999999998  19.771875 1.6875  C 21.378125 2.8125  22.55 4.28267045454545  23.2875 6.09801136363636  C 24.1625 5.30539772727272  25.2 4.90909090909091  26.4 4.90909090909091  C 27.725 4.90909090909091  28.85625 5.38849431818182  29.79375 6.34730113636364  C 30.73125 7.30610795454546  31.2 8.46306818181818  31.2 9.81818181818182  C 31.2 10.7769886363636  30.94375 11.6590909090909  30.43125 12.4644886363636  C 32.04375 12.8480113636364  33.375 13.7077414772727  34.425 15.0436789772727  Z " fill-rule="nonzero" fill="#000000" stroke="none" transform="matrix(1 0 0 1 515 267 )" />
  </g>
</svg>