<?xml version="1.0" encoding="utf-8"?>
<svg version="1.1" xmlns:xlink="http://www.w3.org/1999/xlink" width="253px" height="19px" xmlns="http://www.w3.org/2000/svg">
  <g transform="matrix(1 0 0 1 -257 -540 )">
    <path d="M 269 546.5  A 3 3 0 0 0 266 549.5 A 3 3 0 0 0 269 552.5 A 3 3 0 0 0 272 549.5 A 3 3 0 0 0 269 546.5 Z M 494.946446609407 544.853553390593  L 499.592893218814 549.5  L 494.946446609407 554.146446609407  L 495.653553390593 554.853553390593  L 500.653553390593 549.853553390593  L 501.007106781187 549.5  L 500.653553390593 549.146446609407  L 495.653553390593 544.146446609407  L 494.946446609407 544.853553390593  Z " fill-rule="nonzero" fill="#02a7f0" stroke="none" />
    <path d="M 267 549.5  L 500 549.5  " stroke-width="1" stroke="#02a7f0" fill="none" />
  </g>
</svg>