<?xml version="1.0" encoding="utf-8"?>
<svg version="1.1" xmlns:xlink="http://www.w3.org/1999/xlink" width="22px" height="20px" preserveAspectRatio="xMinYMid meet" viewBox="938 223  22 18" xmlns="http://www.w3.org/2000/svg">
  <g transform="matrix(-1 0 0 -1 1898 464 )">
    <path d="M 790 228.5  A 3 3 0 0 0 787 231.5 A 3 3 0 0 0 790 234.5 A 3 3 0 0 0 793 231.5 A 3 3 0 0 0 790 228.5 Z M 943.946446609407 226.853553390593  L 948.592893218814 231.5  L 943.946446609407 236.146446609407  L 944.653553390593 236.853553390593  L 949.653553390593 231.853553390593  L 950.007106781187 231.5  L 949.653553390593 231.146446609407  L 944.653553390593 226.146446609407  L 943.946446609407 226.853553390593  Z " fill-rule="nonzero" fill="#02a7f0" stroke="none" />
    <path d="M 788 231.5  L 949 231.5  " stroke-width="1" stroke="#02a7f0" fill="none" />
  </g>
</svg>