<?xml version="1.0" encoding="utf-8"?>
<svg version="1.1" xmlns:xlink="http://www.w3.org/1999/xlink" width="22px" height="22px" preserveAspectRatio="xMinYMid meet" viewBox="488 541  22 20" xmlns="http://www.w3.org/2000/svg">
  <g transform="matrix(-1 0 0 -1 998 1102 )">
    <path d="M 343 548.5  A 3 3 0 0 0 340 551.5 A 3 3 0 0 0 343 554.5 A 3 3 0 0 0 346 551.5 A 3 3 0 0 0 343 548.5 Z M 493.946446609407 546.853553390593  L 498.592893218814 551.5  L 493.946446609407 556.146446609407  L 494.653553390593 556.853553390593  L 499.653553390593 551.853553390593  L 500.007106781187 551.5  L 499.653553390593 551.146446609407  L 494.653553390593 546.146446609407  L 493.946446609407 546.853553390593  Z " fill-rule="nonzero" fill="#02a7f0" stroke="none" transform="matrix(0.999999620978409 -0.000870656671031253 0.000870656671031253 0.999999620978409 -0.480007965005427 0.365884832240681 )" />
    <path d="M 341 551.5  L 499 551.5  " stroke-width="1" stroke="#02a7f0" fill="none" transform="matrix(0.999999620978409 -0.000870656671031253 0.000870656671031253 0.999999620978409 -0.480007965005427 0.365884832240681 )" />
  </g>
</svg>