<?xml version="1.0" encoding="utf-8"?>
<svg version="1.1" xmlns:xlink="http://www.w3.org/1999/xlink" width="22px" height="20px" preserveAspectRatio="xMinYMid meet" viewBox="938 373  22 18" xmlns="http://www.w3.org/2000/svg">
  <g transform="matrix(-1 0 0 -1 1898 764 )">
    <path d="M 790 378.5  A 3 3 0 0 0 787 381.5 A 3 3 0 0 0 790 384.5 A 3 3 0 0 0 793 381.5 A 3 3 0 0 0 790 378.5 Z M 943.946446609407 376.853553390593  L 948.592893218814 381.5  L 943.946446609407 386.146446609407  L 944.653553390593 386.853553390593  L 949.653553390593 381.853553390593  L 950.007106781187 381.5  L 949.653553390593 381.146446609407  L 944.653553390593 376.146446609407  L 943.946446609407 376.853553390593  Z " fill-rule="nonzero" fill="#02a7f0" stroke="none" />
    <path d="M 788 381.5  L 949 381.5  " stroke-width="1" stroke="#02a7f0" fill="none" />
  </g>
</svg>